<svg width="32" height="27" fill="none" xmlns="http://www.w3.org/2000/svg">
  <path d="M4.333 4 1 8.4v15.4c0 .584.234 1.143.65 1.556.418.412.983.644 1.572.644h15.556c.59 0 1.154-.232 1.571-.644.417-.413.651-.973.651-1.556V8.4L17.667 4H4.333ZM1 8.4h20" stroke="#000" stroke-width="2" stroke-linecap="round" stroke-linejoin="round"/>
  <path d="M15.445 12.8a4.378 4.378 0 0 1-1.302 3.111A4.467 4.467 0 0 1 11 17.2a4.467 4.467 0 0 1-3.142-1.289A4.378 4.378 0 0 1 6.556 12.8" stroke="#000" stroke-width="2" stroke-linecap="round" stroke-linejoin="round"/>
  <circle cx="24" cy="8" r="8" fill="#000"/>
</svg>
